<?xml version="1.0" encoding="utf-8"?>
<!-- Generator: Adobe Illustrator 25.3.0, SVG Export Plug-In . SVG Version: 6.00 Build 0)  -->
<svg version="1.1" id="Layer_1" xmlns="http://www.w3.org/2000/svg" xmlns:xlink="http://www.w3.org/1999/xlink" x="0px" y="0px"
	 viewBox="0 0 1920 1080" style="enable-background:new 0 0 1920 1080;" xml:space="preserve">
<style type="text/css">
	.st0{fill:#FFFFFF;}
	.st1{opacity:0.07;fill:#007CFF;}
</style>
<g>
	<rect class="st0" width="1939" height="1092"/>
</g>
<path class="st1" d="M199.92,436.5c-49.8,42.32-42.13,158.57,12.54,191c33.37,19.8,78.52,4.95,198.48-57
	c274.85-141.95,289.44-193.91,353.08-192c184.97,5.54,181.63,448.11,404.27,513c282.12,82.23,812.93-475.28,713.47-708
	c-16.13-37.74-54.9-81.14-92.97-79c-82.33,4.62-81.34,217.65-248.62,445c-68.24,92.75-161.22,219.11-251.75,206
	c-139.75-20.23-91.22-346.34-337.41-496c-82.23-49.98-234.31-102.77-344.72-47c-109.46,55.28-106.36,181.09-226.68,213
	C295.45,447.82,243.15,399.77,199.92,436.5z"/>
</svg>
